<?xml version="1.0" standalone="no"?> <!DOCTYPE svg PUBLIC "-//W3C//DTD SVG 1.0//EN" "http://www.w3.org/TR/2001/REC-SVG-20010904/DTD/svg10.dtd" > <svg xmlns="http://www.w3.org/2000/svg" width="100%" height="100%">
<defs >
<font id="arial_narrow" horiz-adv-x="741" ><font-face
    font-family="Arial Narrow"
    units-per-em="2048"
    panose-1="2 11 5 6 2 2 2 3 2 4"
    ascent="1916"
    descent="-434"
    alphabetic="0" />
<missing-glyph horiz-adv-x="467" d="M44 0V1280H433V0H44ZM91 53H387V1237H91V53Z" />
<glyph unicode=" " glyph-name="space" horiz-adv-x="467" />
<glyph unicode="!" glyph-name="exclam" horiz-adv-x="467" d="M193 364L148 1141V1466H331V1141L289 364H193ZM155 0V205H324V0H155Z" />
<glyph unicode="&quot;" glyph-name="quotedbl" horiz-adv-x="596" d="M117 947L76 1226V1466H244V1226L207 947H117ZM388 947L349 1226V1466H517V1226L477 947H388Z" />
<glyph unicode="#" glyph-name="numbersign" horiz-adv-x="934" d="M82 -25L153 401H15V550H178L239 913H15V1062H263L335 1491H458L386 1062H645L716 1491H840L768 1062H911V913H744L683 550H911V401H658L587 -25H463L534 401H276L205 -25H82ZM301 550H559L620
913H362L301 550Z" />
<glyph unicode="$" glyph-name="dollar" horiz-adv-x="934" d="M415 -211V-31Q295 -12 226 36T111 179T57 407L206 441Q225 279 282 205T415 121V694Q317 716 221 786Q157 832 120 914T83 1107Q83 1220 125 1312T235 1453T415 1515V1601H503V1515Q596 1504 659
1462T766 1344T823 1154L671 1126Q646 1327 503 1363V844Q604 813 633 799Q699 768 747 717T824 590T853 417Q853 222 752 101T503 -29V-211H415ZM415 1365Q331 1349 281 1283T230 1114Q230 936 415 867V1365ZM503 121Q586 134 643 209T701 408Q701 507 659 566T503
669V121Z" />
<glyph unicode="%" glyph-name="percent" horiz-adv-x="1493" d="M94 1114Q94 1297 167 1394T346 1491Q456 1491 532 1394T608 1104Q608 915 532 816T348 716Q242 716 168 814T94 1114ZM351 1367Q296 1367 260 1309T223 1103Q223 956 259 898T354 840Q407 840
443 898T480 1103Q480 1249 443 1308T351 1367ZM351 -54L1009 1491H1129L474 -54H351ZM872 344Q872 527 945 624T1123 721Q1234 721 1310 625T1386 335Q1386 145 1310 46T1126 -54Q1020 -54 946 45T872 344ZM1129 597Q1073 597 1037 539T1000 333Q1000 186 1037
128T1132 70Q1184 70 1220 129T1257 334Q1257 480 1221 538T1129 597Z" />
<glyph unicode="&amp;" glyph-name="ampersand" horiz-adv-x="1120" d="M799 173Q653 -25 455 -25Q276 -25 175 109T73 405Q73 676 359 842Q280 953 252 1024T224 1164Q224 1303 311 1397T522 1491Q640 1491 721 1403T802 1178Q802 969 575 821L791 486Q826 572
848 690L1001 650Q962 460 895 334Q976 202 1082 109L983 -34Q894 37 799 173ZM499 937Q591 1004 621 1055T651 1173Q651 1251 611 1297T515 1343Q458 1343 417 1298T375 1181Q375 1112 433 1030L499 937ZM706 315L436 724Q322 641 277 568T232 416Q232 316 294
225T456 134Q520 134 591 183T706 315Z" />
<glyph unicode="&apos;" glyph-name="quotesingle" horiz-adv-x="322" d="M109 947L71 1221V1466H239V1221L200 947H109Z" />
<glyph unicode="(" glyph-name="parenleft" horiz-adv-x="559" d="M392 -431Q282 -259 192 -7T101 532Q101 1018 392 1491H498Q386 1256 344 1127T277 842T252 530Q252 50 498 -431H392Z" />
<glyph unicode=")" glyph-name="parenright" horiz-adv-x="559" d="M167 -431H61Q306 50 306 530Q306 687 282 842T215 1126T61 1491H167Q458 1018 458 532Q458 253 371 2T167 -431Z" />
<glyph unicode="*" glyph-name="asterisk" horiz-adv-x="653" d="M50 1197L88 1339Q218 1283 277 1242Q262 1426 261 1491H380Q378 1395 361 1243Q444 1294 554 1339L592 1197Q487 1155 388 1141Q438 1088 529 952L431 867Q385 943 318 1082Q257 941 211 867L115
952Q205 1090 251 1141Q144 1166 50 1197Z" />
<glyph unicode="+" glyph-name="plus" horiz-adv-x="981" d="M419 237V639H92V807H419V1206H559V807H886V639H559V237H419Z" />
<glyph unicode="," glyph-name="comma" horiz-adv-x="467" d="M152 0V205H320V0Q320 -119 285 -186T183 -290L142 -213Q187 -189 210 -142T235 0H152Z" />
<glyph unicode="-" glyph-name="hyphen" horiz-adv-x="559" d="M53 440V621H506V440H53Z" />
<glyph unicode="." glyph-name="period" horiz-adv-x="467" d="M155 0V205H323V0H155Z" />
<glyph unicode="/" glyph-name="slash" horiz-adv-x="467" d="M0 -25L348 1491H467L118 -25H0Z" />
<glyph unicode="0" glyph-name="zero" horiz-adv-x="934" d="M67 723Q67 1092 166 1282T460 1472Q632 1472 731 1318Q851 1132 851 723Q851 356 752 166T458 -25Q286 -25 177 143T67 723ZM218 723Q218 366 286 245T462 123Q563 123 631 246T699 723Q699 1081 631
1202T453 1323Q353 1323 286 1200T218 723Z" />
<glyph unicode="1" glyph-name="one" horiz-adv-x="934" d="M623 0H475V1147Q424 1087 338 1025T180 930V1104Q302 1174 395 1275T527 1472H623V0Z" />
<glyph unicode="2" glyph-name="two" horiz-adv-x="934" d="M845 173V0H50Q47 105 113 235T357 542Q564 748 628 860T692 1070Q692 1182 627 1252T465 1323Q362 1323 296 1247T230 1029L78 1048Q94 1259 197 1365T470 1472Q654 1472 748 1348T843 1066Q843 926
769 798T488 455Q356 320 318 271T255 173H845Z" />
<glyph unicode="3" glyph-name="three" horiz-adv-x="934" d="M68 387L216 411Q262 123 449 123Q550 123 624 208T698 430Q698 558 630 636T463 714Q421 714 359 694L376 852L399 850Q508 850 576 917T644 1096Q644 1199 587 1261T448 1324Q363 1324 305 1259T230
1060L83 1092Q111 1280 209 1376T446 1472Q592 1472 694 1364T796 1092Q796 992 753 915T631 794Q703 774 750 728T826 605T855 433Q855 231 736 103T451 -26Q297 -26 190 86T68 387Z" />
<glyph unicode="4" glyph-name="four" horiz-adv-x="934" d="M540 0V351H19V516L568 1466H688V516H851V351H688V0H540ZM540 516V1177L164 516H540Z" />
<glyph unicode="5" glyph-name="five" horiz-adv-x="934" d="M67 384L222 400Q240 260 303 192T451 123Q556 123 632 219T708 483Q708 640 635 726T450 813Q383 813 325 776T232 671L93 693L210 1446H807V1274H328L263 880Q370 972 490 972Q641 972 752 844T864
497Q864 282 753 129T453 -25Q297 -25 190 83T67 384Z" />
<glyph unicode="6" glyph-name="six" horiz-adv-x="934" d="M833 1107L686 1093Q665 1206 624 1254Q565 1324 482 1324Q353 1324 275 1164Q208 1026 207 756Q258 852 335 901T498 951Q641 951 747 822T854 475Q854 328 801 209T663 32T478 -25Q296 -25 178 139T60
686Q60 1111 181 1291T491 1472Q628 1472 720 1379T833 1107ZM230 475Q230 316 305 220T479 123Q566 123 634 214T703 464Q703 620 635 706T469 792Q373 792 302 707T230 475Z" />
<glyph unicode="7" glyph-name="seven" horiz-adv-x="934" d="M77 1274V1447H855V1307Q681 1081 549 719T397 0H245Q248 184 303 429T456 896T665 1274H77Z" />
<glyph unicode="8" glyph-name="eight" horiz-adv-x="934" d="M294 795Q205 835 160 909T114 1095Q114 1262 212 1367T460 1472Q610 1472 709 1365T809 1089Q809 983 765 910T632 795Q741 752 799 656T858 418Q858 222 745 99T463 -25Q293 -25 180 98T66 423Q66
570 126 665T294 795ZM266 1100Q266 992 323 928T463 864Q544 864 601 927T658 1090Q658 1193 600 1258T461 1324Q381 1324 324 1260T266 1100ZM217 423Q217 288 289 206T463 123Q565 123 636 203T707 417Q707 552 634 634T459 717Q358 717 288 635T217 423Z" />
<glyph unicode="9" glyph-name="nine" horiz-adv-x="934" d="M89 339L231 355Q265 123 431 123Q505 123 565 173T668 353T710 654V690Q664 601 586 549T427 497Q280 497 174 625T67 977Q67 1207 177 1339T446 1472Q558 1472 655 1398T805 1180T858 765Q858 463
801 296T647 52T428 -25Q291 -25 199 68T89 339ZM694 986Q694 1143 624 1233T463 1323Q368 1323 294 1227T219 971Q219 827 290 742T460 656Q558 656 626 742T694 986Z" />
<glyph unicode=":" glyph-name="colon" horiz-adv-x="467" d="M155 857V1062H323V857H155ZM155 0V205H323V0H155Z" />
<glyph unicode=";" glyph-name="semicolon" horiz-adv-x="467" d="M152 857V1062H320V857H152ZM152 0V205H320V0Q320 -119 285 -186T183 -290L142 -213Q187 -189 210 -142T235 0H152Z" />
<glyph unicode="&lt;" glyph-name="less" horiz-adv-x="981" d="M90 641V809L886 1219V1040L255 724L886 405V226L90 641Z" />
<glyph unicode="=" glyph-name="equal" horiz-adv-x="981" d="M886 862H92V1030H886V862ZM886 417H92V585H886V417Z" />
<glyph unicode="&gt;" glyph-name="greater" horiz-adv-x="981" d="M886 641L90 226V405L721 724L90 1040V1219L886 809V641Z" />
<glyph unicode="?" glyph-name="question" horiz-adv-x="934" d="M385 361L383 415Q383 560 432 658Q466 726 575 843Q649 922 672 971T695 1079Q695 1189 625 1266T464 1343Q371 1343 307 1272T223 1046L71 1068Q93 1280 196 1385T463 1491Q627 1491 736 1379T846
1091Q846 995 810 915T666 717Q574 618 552 561T526 361H385ZM375 0V205H543V0H375Z" />
<glyph unicode="@" glyph-name="at" horiz-adv-x="1704" d="M950 163Q892 81 826 39T702 -3Q582 -3 500 106Q401 238 401 446Q401 614 472 773T640 1008T830 1084Q898 1084 963 1038T1075 900L1102 1055H1250L1131 384Q1107 245 1107 229Q1107 200 1124 182T1164
163Q1208 163 1289 233T1425 436T1480 719Q1480 897 1403 1041T1191 1266T896 1347Q707 1347 554 1245T306 942T210 481Q210 237 296 66T541 -194T920 -283Q1117 -283 1266 -201T1494 19H1642Q1593 -102 1481 -212T1232 -377T919 -431Q660 -431 479 -327T194 -21T89
467Q89 770 204 1016T494 1377T904 1493Q1100 1493 1256 1397T1507 1119T1602 715Q1602 415 1428 188Q1281 -4 1108 -4Q1026 -4 992 36T950 163ZM553 434Q553 296 607 221T730 145Q788 145 858 203T978 386T1028 647Q1028 787 972 861T837 935Q776 935 715 883T603
697T553 434Z" />
<glyph unicode="A" glyph-name="A" horiz-adv-x="1120" d="M-2 0L460 1466H631L1123 0H941L801 444H299L167 0H-2ZM345 602H752L627 1008Q569 1195 542 1312Q519 1171 477 1032L345 602Z" />
<glyph unicode="B" glyph-name="B" horiz-adv-x="1120" d="M124 0V1466H575Q712 1466 792 1424T923 1291T974 1092Q974 991 930 910T806 780Q911 742 971 651T1032 425Q1032 292 978 192T832 46T582 0H124ZM283 850H543Q645 850 688 864Q750 885 783 934T817 1069Q817
1148 787 1200T706 1273T524 1293H283V850ZM283 173H582Q681 173 728 191Q796 217 831 276T867 426Q867 509 833 566T742 650T561 677H283V173Z" />
<glyph unicode="C" glyph-name="C" horiz-adv-x="1212" d="M983 514L1143 465Q1090 218 958 97T635 -25Q468 -25 350 56T156 318T80 743Q80 985 155 1152T360 1405T648 1491Q822 1491 947 1383T1122 1064L966 1019Q886 1325 645 1325Q525 1325 437 1264T297 1072T244
743Q244 442 350 292T632 141Q762 141 856 233T983 514Z" />
<glyph unicode="D" glyph-name="D" horiz-adv-x="1212" d="M126 0V1466H541Q695 1466 775 1439Q880 1404 957 1311T1077 1077T1120 741Q1120 492 1047 319T860 73T560 0H126ZM285 173H541Q696 173 776 223T899 386Q956 535 956 743Q956 966 896 1093T740 1264Q676
1293 537 1293H285V173Z" />
<glyph unicode="E" glyph-name="E" horiz-adv-x="1120" d="M133 0V1466H1002V1293H292V844H957V672H292V173H1030V0H133Z" />
<glyph unicode="F" glyph-name="F" horiz-adv-x="1026" d="M141 0V1466H952V1293H300V839H864V666H300V0H141Z" />
<glyph unicode="G" glyph-name="G" horiz-adv-x="1307" d="M696 575V747L1205 748V204Q1088 90 963 33T706 -25Q530 -25 392 63T174 320T93 726Q93 966 174 1144T386 1406T696 1491Q828 1491 927 1442T1090 1303T1186 1056L1043 1008Q1014 1132 970 1193T854 1290T692
1325Q561 1325 467 1262T315 1064T257 737Q257 443 380 297T700 150Q794 150 892 195T1049 302V575H696Z" />
<glyph unicode="H" glyph-name="H" horiz-adv-x="1212" d="M129 0V1466H288V864H913V1466H1072V0H913V691H288V0H129Z" />
<glyph unicode="I" glyph-name="I" horiz-adv-x="467" d="M160 0V1466H319V0H160Z" />
<glyph unicode="J" glyph-name="J" horiz-adv-x="840" d="M45 416L188 440Q194 272 240 210T367 148Q424 148 467 179T526 259Q547 324 547 456V1466H706V467Q706 197 618 86T368 -25Q211 -25 134 75Q45 189 45 416Z" />
<glyph unicode="K" glyph-name="K" horiz-adv-x="1120" d="M124 0V1466H283V739L880 1466H1096L591 872L1118 0H908L480 742L283 508V0H124Z" />
<glyph unicode="L" glyph-name="L" horiz-adv-x="934" d="M120 0V1466H279V173H871V0H120Z" />
<glyph unicode="M" glyph-name="M" horiz-adv-x="1399" d="M125 0V1466H364L649 428L706 211Q727 292 770 446L1058 1466H1272V0H1119V1227L769 0H626L278 1248V0H125Z" />
<glyph unicode="N" glyph-name="N" horiz-adv-x="1212" d="M125 0V1466H288L920 315V1466H1072V0H909L278 1152V0H125Z" />
<glyph unicode="O" glyph-name="O" horiz-adv-x="1307" d="M85 714Q85 1089 250 1290T661 1492Q820 1492 951 1402T1158 1141T1235 732Q1235 406 1087 201Q924 -25 660 -25Q394 -25 232 207Q85 417 85 714ZM249 711Q249 440 368 291T659 141Q834 141 952 292T1071
736Q1071 925 1010 1074Q963 1188 869 1256T662 1325Q482 1325 366 1175T249 711Z" />
<glyph unicode="P" glyph-name="P" horiz-adv-x="1120" d="M130 0V1466H583Q743 1466 819 1438Q923 1400 985 1297T1047 1044Q1047 846 946 721T597 596H289V0H130ZM289 769H600Q747 769 815 835T883 1036Q883 1123 850 1185T769 1270T597 1293H289V769Z" />
<glyph unicode="Q" glyph-name="Q" horiz-adv-x="1307" d="M1045 157Q1156 64 1249 21L1202 -114Q1070 -56 944 66Q811 -25 650 -25Q386 -25 223 206Q76 414 76 732Q76 970 155 1144T362 1405T652 1492Q811 1492 941 1403T1149 1142T1226 736Q1226 553 1179 405T1045
157ZM694 405Q831 359 921 265Q1061 423 1061 736Q1061 925 1008 1057T860 1257T653 1325Q475 1325 358 1176T240 732Q240 442 359 292T653 141Q737 141 813 180Q739 239 655 264L694 405Z" />
<glyph unicode="R" glyph-name="R" horiz-adv-x="1212" d="M129 0V1466H662Q829 1466 908 1425T1039 1289T1090 1067Q1090 901 1004 798T752 667Q819 627 854 586Q925 502 979 399L1189 0H989L829 305Q736 484 689 546T597 629T472 651H288V0H129ZM288 819H630Q742
819 800 846T892 931T926 1066Q926 1177 861 1240T668 1304H288V819Z" />
<glyph unicode="S" glyph-name="S" horiz-adv-x="1120" d="M76 471L226 487Q238 366 280 299T402 190T580 149Q722 149 800 218T879 399Q879 464 851 512T765 592T516 679Q346 729 274 780T162 909T122 1087Q122 1265 237 1378T547 1491Q681 1491 781 1438T937
1286T997 1053L844 1039Q832 1182 759 1251T552 1320Q417 1320 346 1260T275 1103Q275 1014 327 965Q379 916 561 866Q739 817 811 781Q921 725 977 634T1033 415Q1033 289 974 186T814 28T569 -26Q346 -26 214 108T76 471Z" />
<glyph unicode="T" glyph-name="T" horiz-adv-x="1026" d="M438 0V1293H42V1466H995V1293H597V0H438Z" />
<glyph unicode="U" glyph-name="U" horiz-adv-x="1212" d="M915 1466H1075V619Q1075 406 1034 270T883 54T604 -25Q366 -25 248 117T129 619V1466H288V620Q288 421 319 332T420 197T592 150Q762 150 838 246T915 620V1466Z" />
<glyph unicode="V" glyph-name="V" horiz-adv-x="1120" d="M474 0L8 1466H180L493 401Q529 277 556 161Q584 282 620 401L945 1466H1107L637 0H474Z" />
<glyph unicode="W" glyph-name="W" horiz-adv-x="1585" d="M342 0L23 1466H186L369 505Q398 357 420 205L474 476L703 1466H895L1067 724Q1130 453 1161 205Q1184 348 1220 524L1409 1466H1569L1239 0H1086L832 1117L794 1289Q777 1193 759 1117L504 0H342Z" />
<glyph unicode="X" glyph-name="X" horiz-adv-x="1120" d="M8 0L473 764L63 1466H252L471 1090Q538 974 567 910Q606 988 662 1077L905 1466H1077L655 775L1110 0H914L611 523Q586 567 559 621Q518 541 501 511L199 0H8Z" />
<glyph unicode="Y" glyph-name="Y" horiz-adv-x="1120" d="M468 0V621L5 1466H199L435 1024Q505 893 558 776Q611 891 689 1035L922 1466H1107L627 621V0H468Z" />
<glyph unicode="Z" glyph-name="Z" horiz-adv-x="1026" d="M36 0V180L652 1119Q716 1217 777 1293H105V1466H966V1293L292 276L219 173H986V0H36Z" />
<glyph unicode="[" glyph-name="bracketleft" horiz-adv-x="467" d="M117 -407V1466H443V1317H264V-258H443V-407H117Z" />
<glyph unicode="\" glyph-name="backslash" horiz-adv-x="467" d="M348 -25L0 1491H119L467 -25H348Z" />
<glyph unicode="]" glyph-name="bracketright" horiz-adv-x="467" d="M362 -407H36V-258H214V1317H36V1466H362V-407Z" />
<glyph unicode="^" glyph-name="asciicircum" horiz-adv-x="788" d="M196 690H45L335 1491H454L744 690H596L393 1287L196 690Z" />
<glyph unicode="_" glyph-name="underscore" horiz-adv-x="934" d="M-12 -154H943V-256H-12V-154Z" />
<glyph unicode="`" glyph-name="grave" horiz-adv-x="559" d="M381 1194H262L73 1474H271L381 1194Z" />
<glyph unicode="a" glyph-name="a" horiz-adv-x="934" d="M676 131Q602 54 522 15T356 -24Q220 -24 139 58T58 279Q58 371 96 442T200 553T400 612Q580 638 664 674L665 720Q665 829 626 873Q571 937 457 937Q354 937 303 895T228 735L83 759Q114 930 208 1008T479
1086Q616 1086 694 1035T792 907T813 685V445Q813 193 822 128T860 0H706Q683 55 676 131ZM664 533Q583 493 423 465Q330 449 293 429T236 371T215 284Q215 208 262 163T392 117Q471 117 535 158T632 267T664 467V533Z" />
<glyph unicode="b" glyph-name="b" horiz-adv-x="934" d="M244 0H107V1466H254V943Q301 1015 360 1050T493 1086Q595 1086 678 1025T812 840T862 539Q862 269 749 123T485 -24Q409 -24 349 15T244 133V0ZM242 539Q242 374 272 292T357 167T479 124Q570 124 640
226T711 533Q711 742 643 840T476 938Q385 938 314 836T242 539Z" />
<glyph unicode="c" glyph-name="c" horiz-adv-x="840" d="M679 389L824 366Q799 176 699 76T457 -24Q286 -24 176 116T65 532Q65 809 176 947T463 1086Q598 1086 690 1002T809 750L666 723Q645 831 593 884T468 938Q359 938 288 842T216 535Q216 318 284 221T460
124Q544 124 603 188T679 389Z" />
<glyph unicode="d" glyph-name="d" horiz-adv-x="934" d="M673 0V134Q633 57 570 17T434 -24Q280 -24 168 121T55 531Q55 712 105 838T238 1025T424 1086Q497 1086 559 1048T663 940V1466H811V0H673ZM206 530Q206 324 277 224T444 124Q538 124 607 220T676 510Q676
733 607 835T433 938Q340 938 273 840T206 530Z" />
<glyph unicode="e" glyph-name="e" horiz-adv-x="934" d="M704 342L856 319Q818 149 719 63T472 -24Q287 -24 173 116T58 522Q58 797 173 941T466 1086Q635 1086 748 944T861 533L860 485H210Q219 306 293 215T473 124Q639 124 704 342ZM219 633H705Q695 771 646
839Q575 938 465 938Q366 938 296 856T219 633Z" />
<glyph unicode="f" glyph-name="f" horiz-adv-x="467" d="M150 0V922H19V1062H150V1175Q150 1300 176 1362T255 1458T390 1491Q453 1491 528 1473L506 1316Q460 1326 419 1326Q353 1326 325 1292T296 1160V1062H466V922H296V0H150Z" />
<glyph unicode="g" glyph-name="g" horiz-adv-x="934" d="M80 -88L224 -114Q234 -199 284 -240T423 -282Q520 -282 577 -236T656 -97Q669 -41 669 139Q621 70 561 35T428 0Q272 0 169 132Q51 284 51 539Q51 710 103 838T239 1026T429 1086Q506 1086 569 1048T682
934V1062H818V144Q818 -101 778 -205T647 -370T428 -431Q259 -431 168 -340T80 -88ZM203 550Q203 341 272 245T441 149Q541 149 611 243T681 542Q681 742 609 839T434 937Q342 937 273 840T203 550Z" />
<glyph unicode="h" glyph-name="h" horiz-adv-x="934" d="M108 0V1466H255V940Q307 1013 372 1049T517 1086Q656 1086 736 998T817 673V0H670V673Q670 811 621 871T486 931Q390 931 323 854T255 581V0H108Z" />
<glyph unicode="i" glyph-name="i" horiz-adv-x="373" d="M108 1259V1466H255V1259H108ZM108 0V1062H255V0H108Z" />
<glyph unicode="j" glyph-name="j" horiz-adv-x="373" d="M107 1257V1466H254V1257H107ZM-80 -412L-52 -259Q-8 -273 17 -273Q64 -273 85 -236T107 -54V1062H254V-58Q254 -275 199 -353T36 -431Q-24 -431 -80 -412Z" />
<glyph unicode="k" glyph-name="k" horiz-adv-x="840" d="M112 0V1466H259V630L609 1062H800L467 668L833 0H652L363 543L259 421V0H112Z" />
<glyph unicode="l" glyph-name="l" horiz-adv-x="373" d="M104 0V1466H251V0H104Z" />
<glyph unicode="m" glyph-name="m" horiz-adv-x="1399" d="M110 0V1062H242V913Q286 996 355 1041T506 1086Q598 1086 661 1039T752 900Q804 993 871 1039T1021 1086Q1146 1086 1218 1001T1290 729V0H1143V669Q1143 783 1127 830T1073 904T990 930Q895 930 835
855T775 617V0H627V690Q627 822 587 876T475 930Q374 930 316 849T257 551V0H110Z" />
<glyph unicode="n" glyph-name="n" horiz-adv-x="934" d="M108 0V1062H241V911Q289 999 358 1042T518 1086Q588 1086 647 1059T743 987T798 871T816 653V0H668V646Q668 763 648 817T586 900T487 930Q381 930 318 851T255 580V0H108Z" />
<glyph unicode="o" glyph-name="o" horiz-adv-x="934" d="M53 531Q53 806 168 946T461 1086Q635 1086 752 946T869 542Q869 256 754 116T461 -24Q286 -24 170 116T53 531ZM204 531Q204 325 279 225T465 124Q569 124 643 225T718 531Q718 736 643 836T457 937Q352
937 278 836T204 531Z" />
<glyph unicode="p" glyph-name="p" horiz-adv-x="934" d="M108 -407V1062H243V924Q293 1010 354 1048T494 1086Q597 1086 680 1025T813 840T864 540Q864 269 751 123T484 -24Q416 -24 357 11T255 110V-407H108ZM241 525Q241 319 310 222T477 124Q571 124 642 225T713
537Q713 745 644 845T476 945Q387 945 314 838T241 525Z" />
<glyph unicode="q" glyph-name="q" horiz-adv-x="934" d="M663 -407V113Q628 52 566 14T440 -24Q284 -24 170 124T56 541Q56 775 152 930T424 1086Q505 1086 568 1045T677 920V1062H810V-407H663ZM207 534Q207 327 279 226T451 124Q540 124 609 221T678 512Q678
731 606 837T433 944Q342 944 275 845T207 534Z" />
<glyph unicode="r" glyph-name="r" horiz-adv-x="559" d="M108 0V1062H241V901Q292 1013 334 1049T430 1086Q504 1086 581 1028L531 861Q476 900 424 900Q377 900 338 867T283 775Q255 672 255 556V0H108Z" />
<glyph unicode="s" glyph-name="s" horiz-adv-x="840" d="M52 317L198 345Q211 233 269 179T423 124Q519 124 571 171T624 292Q624 355 579 390Q548 414 429 450Q257 503 199 540T109 639T77 780Q77 916 164 1001T405 1086Q502 1086 575 1051T688 957T742 788L598
764Q578 938 409 938Q313 938 266 900T219 801Q219 742 264 708Q291 688 424 644Q607 585 661 551T745 457T775 315Q775 163 679 69T415 -25Q102 -25 52 317Z" />
<glyph unicode="t" glyph-name="t" horiz-adv-x="467" d="M437 161L457 2Q396 -14 347 -14Q270 -14 223 16T159 100T141 311V922H33V1062H141V1325L288 1433V1062H437V922H288V301Q288 215 301 190Q320 154 372 154Q397 154 437 161Z" />
<glyph unicode="u" glyph-name="u" horiz-adv-x="934" d="M679 0V156Q628 66 559 21T403 -24Q300 -24 227 31T130 172T105 404V1062H252V473Q252 309 268 254T329 165T431 131Q537 131 605 218Q663 293 663 493V1062H811V0H679Z" />
<glyph unicode="v" glyph-name="v" horiz-adv-x="840" d="M352 0L21 1062H177L364 426Q396 318 420 212Q439 296 474 414L668 1062H820L490 0H352Z" />
<glyph unicode="w" glyph-name="w" horiz-adv-x="1212" d="M268 0L2 1062H155L293 449L344 221L390 440L528 1062H680L810 446L854 243L904 448L1053 1062H1197L924 0H771L632 636L599 817L423 0H268Z" />
<glyph unicode="x" glyph-name="x" horiz-adv-x="840" d="M12 0L330 552L36 1062H220L354 813Q391 744 415 694Q452 762 481 811L628 1062H804L503 562L827 0H646L467 330L420 419L191 0H12Z" />
<glyph unicode="y" glyph-name="y" horiz-adv-x="840" d="M104 -409L88 -240Q137 -256 172 -256Q219 -256 249 -237T300 -178Q307 -164 358 -2L27 1062H186L368 447Q402 332 431 201Q456 325 491 443L677 1062H825L494 -18Q429 -228 392 -298T307 -400T199 -431Q157
-431 104 -409Z" />
<glyph unicode="z" glyph-name="z" horiz-adv-x="840" d="M33 0V146L588 922Q493 916 421 916H66V1062H778V943L306 269L215 146Q314 155 401 155H804V0H33Z" />
<glyph unicode="{" glyph-name="braceleft" horiz-adv-x="561" d="M46 612Q102 613 142 647T198 747T216 999Q217 1181 223 1241Q234 1338 273 1402Q301 1449 348 1470T475 1491H521V1334H495Q411 1334 383 1298T354 1129Q354 853 342 779Q326 679 290 626T183
530Q270 485 312 392T354 80Q354 -141 361 -178Q371 -231 398 -252T495 -274H521V-431H475Q389 -431 346 -410T276 -347Q239 -291 228 -216T216 61Q215 247 198 313T142 413T46 449V612Z" />
<glyph unicode="|" glyph-name="bar" horiz-adv-x="436" d="M156 -431V1491H285V-431H156Z" />
<glyph unicode="}" glyph-name="braceright" horiz-adv-x="561" d="M512 612V449Q455 447 416 413T360 313T342 61Q341 -120 335 -179Q324 -276 285 -341Q257 -389 210 -410T83 -431H37V-274H63Q146 -274 174 -237T203 -68Q203 209 216 285Q233 384 272 441T375
530Q281 585 242 675T203 980Q203 1201 197 1239Q187 1292 160 1313T63 1334H37V1491H83Q169 1491 212 1470T282 1407Q319 1351 330 1276T342 999Q343 814 360 747T416 647T512 612Z" />
<glyph unicode="~" glyph-name="asciitilde" horiz-adv-x="981" d="M72 557V762Q159 882 300 882Q346 882 400 865T557 795Q648 748 699 748Q748 748 794 776Q859 817 911 885V673Q809 559 684 559Q636 559 592 572T459 634Q351 693 286 693Q236 693 189 666T72 557Z" />
</font>
</defs>
</svg>
